<svg width="553" height="112" viewBox="0 0 553 112" fill="none" xmlns="http://www.w3.org/2000/svg">
<path d="M529.187 85.1212C512.835 85.1212 502.419 74.9292 502.419 56.1132C502.419 39.6492 513.395 26.6572 528.627 26.6572C542.627 26.6572 552.371 35.6172 552.819 51.8572V54.3212L514.291 54.3212V55.7772C514.291 70.1132 521.683 77.8412 533.555 77.8412C539.715 77.8412 544.307 75.9372 548.787 72.8012L551.475 76.2732C545.651 81.8732 538.147 85.1212 529.187 85.1212ZM514.627 49.1692L541.619 48.8332C541.283 38.6412 536.467 31.9212 528.851 31.9212C521.123 31.9212 516.083 38.3052 514.627 49.1692Z" fill="white"/>
<path d="M473.821 85.1212C456.909 85.1212 446.493 74.3692 446.493 56.6732C446.493 38.6412 458.141 26.6572 474.605 26.6572C481.997 26.6572 488.269 28.6732 494.429 32.5932L492.973 46.8172L489.725 46.8172C488.157 42.7852 487.037 40.3212 485.357 37.8572C482.445 33.6012 479.085 32.0332 474.717 32.0332C465.309 32.0332 458.477 41.6652 458.477 55.5532C458.477 69.1052 466.093 77.8412 477.853 77.8412C482.781 77.8412 487.933 76.0492 492.077 72.9132L494.765 76.3852C488.941 82.3212 482.221 85.1212 473.821 85.1212Z" fill="white"/>
<path d="M404.753 85.1212C394.225 85.1212 387.393 78.9612 387.393 69.5532C387.393 62.0492 392.433 56.4492 401.281 53.4252C406.545 51.6332 413.377 50.6252 420.545 50.2892V47.0412C420.545 36.7372 416.961 32.1452 410.017 32.1452C407.105 32.1452 404.305 32.7052 402.065 34.1612C400.161 35.3932 398.817 37.5212 396.577 44.0172H392.545L389.185 34.0492C396.801 28.8972 403.745 26.6572 411.361 26.6572C425.249 26.6572 431.521 32.4812 431.521 47.2652V70.3372C431.521 74.2572 432.529 75.6012 436.225 76.0492L440.257 76.4972L440.817 79.4092L426.257 85.1212H423.793L420.993 76.8332C417.073 81.8732 410.801 85.1212 404.753 85.1212ZM409.009 77.2812C412.817 77.2812 417.185 75.3772 420.545 71.6812V54.8812C415.841 55.1052 411.697 55.6652 408.561 56.5612C402.177 58.3532 398.817 62.1612 398.817 67.7612C398.817 73.5852 402.849 77.2812 409.009 77.2812Z" fill="white"/>
<path d="M346.637 110.881H315.949V107.969L320.429 106.289C323.789 105.057 324.909 103.489 324.909 100.017V44.3532C324.909 39.6492 323.677 37.8572 320.541 37.1852L316.397 36.2892V33.4892L332.301 26.6572L334.877 28.2252V36.8492C340.477 30.2412 347.309 26.6572 353.917 26.6572C367.581 26.6572 377.325 37.8572 377.325 53.6492C377.325 73.1372 366.013 85.1212 347.869 85.1212C343.613 85.1212 339.357 84.0012 335.885 81.8732V100.017C335.885 103.377 336.893 104.497 341.933 106.289L346.637 107.969V110.881ZM348.541 79.9692C358.509 79.9692 365.341 70.5612 365.341 57.0092C365.341 43.2332 359.181 34.8332 349.213 34.8332C344.285 34.8332 339.357 37.4092 335.885 41.7772V68.5452C336.221 75.4892 341.149 79.9692 348.541 79.9692Z" fill="white"/>
<path d="M287.339 85.1212C280.171 85.1212 272.443 82.9932 267.179 79.1852L268.523 66.1932H271.547L274.123 71.4572C277.035 76.8332 281.739 79.8572 287.899 79.8572C294.507 79.8572 298.987 76.4972 298.987 71.0092C298.987 66.4172 296.075 63.1692 284.651 58.6892C273.227 54.2092 268.299 48.8332 268.299 41.7772C268.299 32.7052 276.251 26.6572 288.235 26.6572C294.507 26.6572 301.563 28.2252 306.715 30.5772L305.483 42.6732H302.459C300.891 39.7612 299.659 37.9692 298.091 36.1772C295.739 33.4892 292.155 31.9212 288.347 31.9212C282.187 31.9212 278.267 34.8332 278.267 38.9772C278.267 43.2332 281.515 45.8092 292.603 50.6252C304.699 55.7772 309.179 61.1532 309.179 68.0972C309.179 78.2892 300.331 85.1212 287.339 85.1212Z" fill="white"/>
<path d="M217.513 112L215.833 109.872C226.025 99.792 229.721 91.728 232.521 71.232L237.673 33.824H227.257L227.929 29.008L238.569 27.664L239.577 20.16C241.369 6.944 248.985 0 261.081 0C265.449 0 269.481 1.12001 273.401 3.472L270.153 12.432H267.577L260.633 5.488C255.593 5.488 251.673 10.528 250.553 19.712L249.433 27.776L264.889 27.776L263.881 33.824H248.537L243.273 72.912C240.361 94.304 233.865 103.488 217.513 112Z" fill="white"/>
<path d="M218.367 84H190.031V81.088L194.511 79.408C197.759 78.064 198.767 76.832 198.767 73.136V17.136C198.767 12.544 197.535 10.976 194.399 10.304L190.255 9.408V6.496L207.055 0L209.743 1.568V73.136C209.743 76.832 210.639 78.064 213.887 79.408L218.367 81.088V84Z" fill="white"/>
<path d="M158.917 85.1212C142.565 85.1212 132.149 74.9292 132.149 56.1132C132.149 39.6492 143.125 26.6572 158.357 26.6572C172.357 26.6572 182.101 35.6172 182.549 51.8572V54.3212L144.021 54.3212V55.7772C144.021 70.1132 151.413 77.8412 163.285 77.8412C169.445 77.8412 174.037 75.9372 178.517 72.8012L181.205 76.2732C175.381 81.8732 167.877 85.1212 158.917 85.1212ZM144.357 49.1692L171.349 48.8332C171.013 38.6412 166.197 31.9212 158.581 31.9212C150.853 31.9212 145.813 38.3052 144.357 49.1692Z" fill="white"/>
<path d="M87.0051 84H58.8931V81.088L63.3731 79.408C66.7331 78.064 67.6291 76.72 67.6291 73.136L67.6291 17.136C67.6291 12.656 66.3971 10.976 63.2611 10.304L59.1171 9.408V6.496L75.9171 0L78.6051 1.568V37.744C83.9811 30.688 91.2611 26.656 98.4291 26.656C110.077 26.656 117.357 34.832 117.357 48.048V73.136C117.357 76.72 118.253 78.064 121.501 79.408L125.981 81.088V84L97.9811 84V81.088L102.461 79.408C105.485 78.176 106.381 76.944 106.381 73.136V50.4C106.381 40.88 101.901 35.728 93.7251 35.728C88.1251 35.728 82.4131 38.864 78.6051 43.904L78.6051 73.136C78.6051 76.944 79.3891 78.176 82.5251 79.408L87.0051 81.088V84Z" fill="white"/>
<path d="M24.64 85.1206C15.12 85.1206 5.712 82.5446 0 78.2886L0 59.6966H3.136L6.16 66.9766C9.744 75.2646 16.128 79.0726 25.088 79.0726C33.824 79.0726 40.32 73.8086 40.32 66.7526C40.32 59.9206 35.616 55.8886 17.696 47.6006C5.6 42.0006 0.224 35.5046 0.224 26.5446C0.224 14.5606 10.416 6.16064 24.64 6.16064C31.472 6.16064 40.096 8.17665 45.472 10.9766L46.816 27.5526H43.68L40.768 22.4006C36.624 15.2326 30.688 12.0966 23.408 12.0966C15.904 12.0966 10.304 16.9126 10.304 23.2966C10.304 29.2326 14.448 32.9286 28.56 39.7606C44.912 47.6006 50.96 54.0966 50.96 63.6166C50.96 76.1606 40.432 85.1206 24.64 85.1206Z" fill="white"/>
</svg>
